<svg width="38" height="34" viewBox="0 0 38 34" fill="none" xmlns="http://www.w3.org/2000/svg">
<path d="M34.0571 0.819824H17.6657C15.7688 0.819824 14.2314 2.35585 14.2314 4.25044V12.3159C15.0979 12.7461 16.0341 13.2113 16.908 13.6452L18.245 10.9729C19.0545 9.35698 21.028 8.70043 22.6451 9.50769C24.2656 10.3178 24.9222 12.2837 24.111 13.9028L21.7276 18.6656C21.7908 19.296 21.7348 19.9315 21.5568 20.5465H23.1304L18.9802 31.9464C18.734 32.6226 19.2099 33.4117 20.0078 33.4117C20.4538 33.4117 20.8734 33.1367 21.0345 32.6926L25.4562 20.5465H26.2222L30.6889 32.6963C30.8514 33.1381 31.2699 33.4117 31.7156 33.4117C32.4611 33.4117 33.0076 32.6678 32.7409 31.9436L28.5509 20.5465H34.0571C35.9538 20.5465 37.4914 19.0105 37.4914 17.1159V4.25044C37.4914 2.35585 35.9538 0.819824 34.0571 0.819824V0.819824ZM31.7151 15.8688H26.8109C26.2074 15.8688 25.7178 15.3797 25.7178 14.7769C25.7178 14.1735 26.2074 13.685 26.8109 13.685H31.7151C32.3191 13.685 32.8081 14.1735 32.8081 14.7769C32.8081 15.3797 32.3191 15.8688 31.7151 15.8688V15.8688ZM31.7151 11.775H26.8109C26.2074 11.775 25.7178 11.2865 25.7178 10.6832C25.7178 10.0804 26.2074 9.59128 26.8109 9.59128H31.7151C32.3191 9.59128 32.8081 10.0804 32.8081 10.6832C32.8081 11.2865 32.3191 11.775 31.7151 11.775V11.775ZM31.7151 7.68191H20.0078C19.4038 7.68191 18.9148 7.19284 18.9148 6.59003C18.9148 5.98722 19.4038 5.49814 20.0078 5.49814H31.7151C32.3191 5.49814 32.8081 5.98722 32.8081 6.59003C32.8081 7.19284 32.3191 7.68191 31.7151 7.68191V7.68191Z" fill="#FFC44E"/>
<path d="M19.4141 20.0785C19.6116 19.5004 19.6102 18.8965 19.4434 18.3454L22.1561 12.9264C22.4259 12.387 22.2073 11.731 21.6673 11.4614C21.1276 11.1916 20.4709 11.4103 20.2008 11.9497L17.8872 16.5714C16.5044 15.8836 14.4034 14.84 12.7109 13.9992C11.1362 13.217 10.0124 12.5155 8.09505 12.5155H7.12924C8.62221 12.5155 9.95465 11.8291 10.8268 10.7549C11.4923 9.93736 11.8903 8.89552 11.8903 7.76014C11.8903 5.13308 9.75881 3.00391 7.12867 3.00391C4.49966 3.00391 2.36822 5.13308 2.36822 7.76014C2.36822 9.02177 2.86009 10.1682 3.66251 11.019C4.53012 11.9406 5.76236 12.5155 7.12838 12.5158C5.29696 12.5158 3.50653 13.2571 2.2185 14.5472C0.905418 15.8554 0.182129 17.5985 0.182129 19.4552V22.9637C0.182129 24.4742 1.16388 25.7594 2.52364 26.2166V32.3198C2.52364 32.9229 3.01295 33.4117 3.61669 33.4117H10.6412C11.245 33.4117 11.7343 32.9229 11.7343 32.3198V20.0518C12.7707 20.5693 14.1321 21.2492 15.2337 21.7996C16.006 22.1852 16.9083 22.2199 17.713 21.8929C18.5154 21.5631 19.134 20.9065 19.4098 20.0913C19.4112 20.087 19.4126 20.0828 19.4141 20.0785V20.0785Z" fill="#FFC44E"/>
</svg>
