<svg width="35" height="35" viewBox="0 0 35 35" fill="none" xmlns="http://www.w3.org/2000/svg">
<path d="M31.3982 3.97491C27.1008 -0.337989 20.0923 -0.337989 15.7949 3.97491C12.8428 6.90377 11.8186 11.2369 13.1038 15.1686C8.56546 19.6822 5.18344 23.0607 0.665061 27.5943C0.464178 27.7748 0.36377 28.0355 0.36377 28.2963V33.9735C0.36377 34.2542 0.464178 34.4949 0.665061 34.6755C0.845729 34.8761 1.08671 34.9765 1.36785 34.9765H7.05103C7.31209 34.9765 7.57315 34.8761 7.75382 34.6755C8.27595 34.174 8.6575 33.7728 9.17969 33.2713C9.40059 33.0506 9.50093 32.7497 9.46083 32.4489C9.40052 31.8871 9.34034 31.4659 9.28003 30.9243C10.0431 30.8441 10.6254 30.7839 11.4087 30.7238C11.8906 30.6635 12.252 30.3024 12.3124 29.821C12.3725 29.0588 12.4328 28.4569 12.5131 27.6947C13.0554 27.7748 13.4771 27.815 14.0393 27.8751C14.6017 27.9554 15.1438 27.494 15.1438 26.8922V25.0132H16.9914C17.2524 25.0132 17.5134 24.9463 17.6942 24.7457C18.618 23.823 19.2689 23.1927 20.1927 22.25C24.1287 23.5338 28.4664 22.5107 31.3982 19.5618C35.7159 15.2688 35.7159 8.26787 31.3982 3.97491ZM28.5668 11.0563C27.402 12.2399 25.4742 12.2399 24.3095 11.0563C23.1246 9.89269 23.1246 7.96704 24.3095 6.80347C25.4742 5.61985 27.402 5.61985 28.5668 6.80347C29.7515 7.96704 29.7515 9.89276 28.5668 11.0563Z" fill="#764AF1"/>
</svg>
