<svg width="36" height="34" viewBox="0 0 36 34" fill="none" xmlns="http://www.w3.org/2000/svg">
<path d="M11.9457 8.81749C9.39126 8.81749 7.31295 10.893 7.31295 13.4453C7.31295 15.9977 9.39126 18.0732 11.9457 18.0732C14.5002 18.0732 16.5785 15.9977 16.5785 13.4453C16.5785 10.893 14.5002 8.81749 11.9457 8.81749ZM10.2084 16.7637V10.127L15.1919 13.4453L10.2084 16.7637ZM30.4769 0.71875H4.99656C2.44208 0.71875 0.36377 2.79428 0.36377 5.3466V21.5441C0.36377 24.0964 2.44208 26.1719 4.99656 26.1719H30.4769C33.0314 26.1719 35.1097 24.0964 35.1097 21.5441V5.3466C35.1097 2.79428 33.0314 0.71875 30.4769 0.71875V0.71875ZM11.9457 20.3871C8.11373 20.3871 4.99656 17.2733 4.99656 13.4453C4.99656 9.61743 8.11373 6.50357 11.9457 6.50357C15.7777 6.50357 18.8949 9.61743 18.8949 13.4453C18.8949 17.2733 15.7777 20.3871 11.9457 20.3871ZM30.4769 19.2302H21.2113V16.9162H30.4769V19.2302ZM30.4769 14.6023H21.2113V12.2884H30.4769V14.6023ZM30.4769 9.97446H21.2113V7.66053H30.4769V9.97446ZM21.2113 30.7998V28.4859H14.2621V30.7998H9.62934V33.1137H25.8441V30.7998H21.2113Z" fill="#F32424"/>
</svg>
